# xmcd
#
# Track frame offsets:
#	150
#	14886
#	37140
#	51741
#	70760
#	93839
#	115090
#	138251
#	158900
#	179835
#	207794
#	221247
#	238973
#	263339
#	283228
#	298823
#
# Disc length: 4259 seconds
#
# Revision: 1
# Processed by: cddbd v1.5.2PL0 Copyright (c) Steve Scherf et al.
# Submitted via: audiograbber 1.83.01
#
DISCID=0810a110
DTITLE=Eric Clapton - Complete Clapton CD2/2
DYEAR=2007
DGENRE=Blues
TTITLE0=Ive Got A Rock'n'Roll Heart
TTITLE1=She's Waiting
TTITLE2=Forever Man
TTITLE3=It's In The Way That You Use It
TTITLE4=Miss You
TTITLE5=Pretending
TTITLE6=Bad Love
TTITLE7=Tears In Heaven
TTITLE8=Layla (Unplugged)
TTITLE9=Running On Faith (Unplugged)
TTITLE10=Motherless Child
TTITLE11=Change The World
TTITLE12=My Fathers Eyes
TTITLE13=Riding With The King (With B.B. King)
TTITLE14=If I Had Possession Of Judgement Day
TTITLE15=Ride The River (With J.J. Cale)
EXTD=
EXTT0=
EXTT1=
EXTT2=
EXTT3=
EXTT4=
EXTT5=
EXTT6=
EXTT7=
EXTT8=
EXTT9=
EXTT10=
EXTT11=
EXTT12=
EXTT13=
EXTT14=
EXTT15=
PLAYORDER=
